<?xml version="1.0" encoding="UTF-8" standalone="no"?>
<!-- Created with Inkscape (http://www.inkscape.org/) -->

<svg
   xmlns:dc="http://purl.org/dc/elements/1.1/"
   xmlns:cc="http://creativecommons.org/ns#"
   xmlns:rdf="http://www.w3.org/1999/02/22-rdf-syntax-ns#"
   xmlns:svg="http://www.w3.org/2000/svg"
   xmlns="http://www.w3.org/2000/svg"
   xmlns:sodipodi="http://sodipodi.sourceforge.net/DTD/sodipodi-0.dtd"
   xmlns:inkscape="http://www.inkscape.org/namespaces/inkscape"
   sodipodi:docname="GBA.svg"
   inkscape:version="0.92.3 (2405546, 2018-03-11)"
   version="1.1"
   id="svg2"
   viewBox="0 0 600 600.00001"
   height="169.33333mm"
   width="169.33333mm">
  <sodipodi:namedview
     units="mm"
     inkscape:snap-global="false"
     inkscape:window-maximized="1"
     inkscape:window-y="-8"
     inkscape:window-x="-8"
     inkscape:window-height="877"
     inkscape:window-width="1538"
     showgrid="false"
     inkscape:current-layer="layer1"
     inkscape:document-units="px"
     inkscape:cy="344.81076"
     inkscape:cx="307.15861"
     inkscape:zoom="1.98"
     inkscape:pageshadow="2"
     inkscape:pageopacity="0.0"
     borderopacity="1.0"
     bordercolor="#666666"
     pagecolor="#ffffff"
     id="base" />
  <defs
     id="defs4" />
  <metadata
     id="metadata7">
    <rdf:RDF>
      <cc:Work
         rdf:about="">
        <dc:format>image/svg+xml</dc:format>
        <dc:type
           rdf:resource="http://purl.org/dc/dcmitype/StillImage" />
        <dc:title />
      </cc:Work>
    </rdf:RDF>
  </metadata>
  <g
     inkscape:label="Ebene 2"
     id="layer2"
     inkscape:groupmode="layer" />
  <g
     transform="translate(0,-452.36216)"
     id="layer1"
     inkscape:groupmode="layer"
     inkscape:label="Ebene 1">
    <path
       inkscape:connector-curvature="0"
       id="path3351"
       d="m 97.296003,814.61937 c -10e-7,0.9754 -0.424434,1.85678 -1.107789,2.48738 -0.659746,0.6088 -1.560832,0.9838 -2.554318,0.9838 -0.993487,0 -1.894574,-0.375 -2.55432,-0.9838 -0.683356,-0.6306 -1.107788,-1.51198 -1.107789,-2.48738 10e-7,-0.97535 0.424433,-1.85675 1.107789,-2.4873 0.659746,-0.6088 1.560833,-0.9838 2.55432,-0.9838 0.993486,0 1.894572,0.375 2.554318,0.9838 0.683355,0.63055 1.107788,1.51195 1.107789,2.4873 0,0 0,0 0,0"
       style="fill:none;stroke:#ff0000;stroke-width:0.85156065;stroke-miterlimit:4;stroke-dasharray:none;stroke-opacity:1" />
    <path
       inkscape:connector-curvature="0"
       id="path3351-1"
       d="m 153.1218,799.45702 c 0,1.19465 -0.50068,2.34038 -1.39188,3.18513 -0.89121,0.84475 -2.09994,1.31932 -3.3603,1.31932 -1.26035,0 -2.46909,-0.47457 -3.36029,-1.31932 -0.89121,-0.84475 -1.39188,-1.99048 -1.39188,-3.18513 0,-1.26574 0.55077,-2.40954 1.43754,-3.22783 0.85612,-0.79001 2.02543,-1.27662 3.31463,-1.27662 1.28921,0 2.45852,0.48661 3.31464,1.27662 0.88676,0.81829 1.43753,1.96209 1.43754,3.22783 0,0 0,0 0,0"
       style="fill:none;stroke:#ff0000;stroke-width:1.10503626;stroke-miterlimit:4;stroke-dasharray:none;stroke-opacity:1" />
    <path
       inkscape:connector-curvature="0"
       id="path3351-1-3"
       d="m 132.79725,766.80695 c 0,1.19465 -0.50067,2.34038 -1.39187,3.18513 -0.89121,0.84475 -2.09994,1.31933 -3.3603,1.31933 -1.26035,0 -2.46909,-0.47458 -3.36029,-1.31933 -0.89121,-0.84475 -1.39188,-1.99048 -1.39188,-3.18513 0,-1.26574 0.55077,-2.40954 1.43753,-3.22783 0.85613,-0.79002 2.02543,-1.27662 3.31464,-1.27662 1.28921,0 2.45851,0.48661 3.31464,1.27662 0.88676,0.81829 1.43753,1.96209 1.43753,3.22783 0,0 0,0 0,0"
       style="fill:none;stroke:#ff0000;stroke-width:1.10503626;stroke-miterlimit:4;stroke-dasharray:none;stroke-opacity:1" />
    <path
       inkscape:connector-curvature="0"
       id="path3351-1-3-6"
       d="m 104.00548,761.27569 c 0,1.19465 -0.50067,2.34038 -1.39188,3.18513 -0.8912,0.84475 -2.09994,1.31933 -3.360292,1.31933 -1.260356,0 -2.46909,-0.47458 -3.360295,-1.31933 -0.891205,-0.84475 -1.391879,-1.99048 -1.391877,-3.18513 10e-7,-1.26574 0.550771,-2.40954 1.437534,-3.22783 0.856126,-0.79001 2.02543,-1.27662 3.314638,-1.27662 1.289212,0 2.458512,0.48661 3.314642,1.27662 0.88676,0.81829 1.43753,1.96209 1.43753,3.22783 0,0 0,0 0,0"
       style="fill:none;stroke:#ff0000;stroke-width:1.10503626;stroke-miterlimit:4;stroke-dasharray:none;stroke-opacity:1" />
    <path
       inkscape:connector-curvature="0"
       id="path3351-1-3-6-6"
       d="m 169.92344,759.28425 c 0,1.26573 -0.55077,2.40953 -1.43753,3.22782 -0.85613,0.79002 -2.02543,1.27663 -3.31463,1.27663 -1.28921,0 -2.45852,-0.48661 -3.31464,-1.27663 -0.88677,-0.81829 -1.43754,-1.96209 -1.43754,-3.22782 0,-1.19466 0.50068,-2.34039 1.39188,-3.18514 0.89121,-0.84475 2.09994,-1.31932 3.3603,-1.31932 1.26035,0 2.46908,0.47457 3.36029,1.31932 0.8912,0.84475 1.39187,1.99048 1.39187,3.18514 0,0 0,0 0,0"
       style="fill:none;stroke:#ff0000;stroke-width:1.10503626;stroke-miterlimit:4;stroke-dasharray:none;stroke-opacity:1" />
    <path
       inkscape:connector-curvature="0"
       id="path3351-1-3-6-6-7"
       d="m 162.05421,662.23612 c 0,1.26574 -0.55077,2.40954 -1.43753,3.22783 -0.85613,0.79002 -2.02543,1.27663 -3.31464,1.27663 -1.26036,0 -2.46909,-0.47458 -3.36029,-1.31932 -0.89121,-0.84475 -1.39188,-1.99048 -1.39188,-3.18514 0,-1.19465 0.50067,-2.34038 1.39188,-3.18513 0.8912,-0.84475 2.09993,-1.31932 3.36029,-1.31932 1.28921,0 2.45851,0.48661 3.31464,1.27663 0.88676,0.81829 1.43753,1.96209 1.43753,3.22782 0,0 0,0 0,0"
       style="fill:none;stroke:#ff0000;stroke-width:1.10503626;stroke-miterlimit:4;stroke-dasharray:none;stroke-opacity:1" />
    <path
       inkscape:connector-curvature="0"
       id="path3351-1-3-6-6-7-6"
       d="m 545.93181,814.79357 c 0,1.1947 -0.50068,2.34038 -1.39189,3.18518 -0.8912,0.8447 -2.09994,1.3193 -3.36029,1.3193 -1.28921,0 -2.45851,-0.4866 -3.31464,-1.2766 -0.88676,-0.8183 -1.43753,-1.96208 -1.43753,-3.22788 0,-1.19455 0.50067,-2.3403 1.39188,-3.185 0.8912,-0.8448 2.09993,-1.3193 3.36029,-1.3193 1.26036,0 2.46909,0.4745 3.3603,1.3193 0.89121,0.8447 1.39188,1.99045 1.39188,3.185 0,0 0,0 0,0"
       style="fill:none;stroke:#ff0000;stroke-width:1.10503626;stroke-miterlimit:4;stroke-dasharray:none;stroke-opacity:1" />
    <path
       inkscape:connector-curvature="0"
       id="path3351-1-3-6-6-7-6-1"
       d="m 538.51559,747.37248 c 0,1.19465 -0.50067,2.34038 -1.39188,3.18513 -0.8912,0.84475 -2.09994,1.31933 -3.36029,1.31933 -1.26036,0 -2.46909,-0.47458 -3.36029,-1.31933 -0.89121,-0.84475 -1.39188,-1.99048 -1.39188,-3.18513 0,-1.26574 0.55077,-2.40954 1.43753,-3.22783 0.85613,-0.79001 2.02543,-1.27662 3.31464,-1.27662 1.28921,0 2.45851,0.48661 3.31463,1.27662 0.88677,0.81829 1.43754,1.96209 1.43754,3.22783 0,0 0,0 0,0"
       style="fill:none;stroke:#ff0000;stroke-width:1.10503626;stroke-miterlimit:4;stroke-dasharray:none;stroke-opacity:1" />
    <path
       inkscape:connector-curvature="0"
       id="path3351-1-3-6-6-7-6-1-3"
       d="m 513.87554,731.49729 c 0,1.19465 -0.50067,2.34038 -1.39188,3.18513 -0.89121,0.84475 -2.09994,1.31933 -3.3603,1.31933 -1.26036,0 -2.46909,-0.47458 -3.36029,-1.31933 -0.89121,-0.84475 -1.39188,-1.99048 -1.39188,-3.18513 0,-1.26574 0.55077,-2.40954 1.43753,-3.22783 0.85613,-0.79001 2.02543,-1.27662 3.31464,-1.27662 1.26035,-10e-6 2.46909,0.47457 3.36029,1.31932 0.89121,0.84474 1.39189,1.99047 1.39189,3.18513 0,0 0,0 0,0"
       style="fill:none;stroke:#ff0000;stroke-width:1.10503626;stroke-miterlimit:4;stroke-dasharray:none;stroke-opacity:1" />
    <path
       inkscape:connector-curvature="0"
       id="path3351-1-3-6-6-7-6-1-3-0"
       d="m 482.65485,662.19988 c 0,1.26573 -0.55077,2.40953 -1.43753,3.22782 -0.85613,0.79002 -2.02543,1.27663 -3.31464,1.27663 -1.26036,0 -2.46909,-0.47457 -3.3603,-1.31932 -0.89121,-0.84475 -1.39188,-1.99048 -1.39188,-3.18513 0,-1.19466 0.50067,-2.34039 1.39188,-3.18514 0.89121,-0.84475 2.09994,-1.31932 3.3603,-1.31932 1.28921,0 2.45851,0.48661 3.31464,1.27663 0.88676,0.81829 1.43753,1.96209 1.43753,3.22783 0,0 0,0 0,0"
       style="fill:none;stroke:#ff0000;stroke-width:1.10503626;stroke-miterlimit:4;stroke-dasharray:none;stroke-opacity:1" />
    <path
       inkscape:connector-curvature="0"
       id="path3351-1-3-6-6-7-6-1-3-0-8"
       d="m 446.5389,613.21028 c 0,1.19466 -0.50068,2.34039 -1.39188,3.18514 -0.89121,0.84475 -2.09995,1.31932 -3.3603,1.31932 -1.28921,0 -2.45851,-0.48661 -3.31464,-1.27663 -0.88676,-0.81829 -1.43753,-1.96209 -1.43753,-3.22783 0,-1.26573 0.55077,-2.40953 1.43753,-3.22782 0.85613,-0.79002 2.02543,-1.27663 3.31464,-1.27663 1.26035,0 2.46909,0.47457 3.3603,1.31932 0.8912,0.84475 1.39188,1.99048 1.39188,3.18513 0,0 0,0 0,0"
       style="fill:none;stroke:#ff0000;stroke-width:1.10503626;stroke-miterlimit:4;stroke-dasharray:none;stroke-opacity:1" />
    <path
       inkscape:connector-curvature="0"
       id="path3351-1-3-6-6-7-6-1-3-0-8-2"
       d="m 198.2689,613.54886 c 0,1.26573 -0.55077,2.40954 -1.43753,3.22782 -0.85612,0.79002 -2.02543,1.27663 -3.31463,1.27664 -1.26036,0 -2.46909,-0.47458 -3.3603,-1.31933 -0.89121,-0.84474 -1.39188,-1.99047 -1.39188,-3.18513 0,-1.19466 0.50067,-2.34038 1.39188,-3.18513 0.89121,-0.84475 2.09994,-1.31933 3.3603,-1.31933 1.2892,10e-6 2.45851,0.48662 3.31463,1.27664 0.88676,0.81829 1.43753,1.96209 1.43753,3.22782 0,0 0,0 0,0"
       style="fill:none;stroke:#ff0000;stroke-width:1.10503626;stroke-miterlimit:4;stroke-dasharray:none;stroke-opacity:1" />
    <path
       inkscape:connector-curvature="0"
       id="path3351-1-3-6-6-7-6-1-3-0-8-2-0"
       d="m 498.11385,693.20391 c 0,0.93426 -0.20119,1.82399 -0.56473,2.63237 -0.37107,0.82514 -0.9113,1.56553 -1.5794,2.18204 -0.65406,0.60355 -1.43067,1.08838 -2.29109,1.41775 -0.81941,0.31368 -1.71484,0.48638 -2.65281,0.48638 -0.93798,0 -1.8334,-0.1727 -2.65281,-0.48638 -0.86042,-0.32938 -1.63703,-0.8142 -2.29108,-1.41776 -0.6681,-0.61651 -1.20833,-1.3569 -1.57941,-2.18203 -0.36354,-0.80839 -0.56472,-1.69811 -0.56472,-2.63237 0,-0.93427 0.20118,-1.82399 0.56472,-2.63238 0.37107,-0.82514 0.9113,-1.56553 1.5794,-2.18204 0.65406,-0.60355 1.43067,-1.08838 2.29109,-1.41776 0.81941,-0.31368 1.71483,-0.48637 2.65281,-0.48637 0.9335,0 1.84802,0.17455 2.69499,0.50458 0.85863,0.33457 1.64783,0.82894 2.317,1.46323 0.65977,0.62537 1.17603,1.36134 1.52872,2.16193 0.35788,0.8124 0.54732,1.69135 0.54732,2.58881 0,0 0,0 0,0"
       style="fill:none;stroke:#ff0000;stroke-width:1;stroke-miterlimit:4;stroke-dasharray:none;stroke-opacity:1" />
    <path
       sodipodi:nodetypes="ccccc"
       inkscape:connector-curvature="0"
       id="rect3548"
       d="m 110.84936,657.24561 c 0,0 1.06293,-0.19891 2.49487,-0.46688 0.76149,-0.1425 1.62733,-0.30453 2.49318,-0.46656 0.86584,-0.16203 1.73169,-0.32406 2.49318,-0.46656 1.43194,-0.26796 2.49486,-0.46687 2.49486,-0.46687 0,0 0.269,1.46641 0.63141,3.4421 0.19283,1.05121 0.41211,2.2466 0.63139,3.44198 0.21928,1.19539 0.43855,2.39078 0.63138,3.44199 0.36242,1.97569 0.63141,3.4421 0.63141,3.4421 0,0 -1.06292,0.17405 -2.49486,0.40852 -0.76149,0.12468 -1.62734,0.26646 -2.49318,0.40824 -0.86585,0.14177 -1.73169,0.28355 -2.49318,0.40824 -1.43194,0.23447 -2.49486,0.40851 -2.49486,0.40851 0,0 -0.269,-1.44156 -0.63141,-3.38376 -0.19283,-1.03339 -0.41211,-2.20852 -0.63139,-3.38365 -0.21928,-1.17512 -0.43856,-2.35025 -0.63139,-3.38364 -0.36241,-1.9422 -0.63141,-3.38376 -0.63141,-3.38376"
       style="fill:none;stroke:#ff0000;stroke-width:0.85156065;stroke-miterlimit:4;stroke-dasharray:none;stroke-opacity:1" />
    <path
       sodipodi:nodetypes="ccccc"
       inkscape:connector-curvature="0"
       id="rect3548-1"
       d="m 514.39719,655.58978 c 0,0 2.43088,0.37921 4.86176,0.75841 2.43088,0.37921 4.86176,0.75842 4.86176,0.75842 0,0 -0.23537,1.48506 -0.55248,3.48586 -0.16873,1.06457 -0.3606,2.27515 -0.55247,3.48574 -0.19186,1.21058 -0.38373,2.42116 -0.55246,3.48574 -0.31711,2.0008 -0.55248,3.48585 -0.55248,3.48585 0,0 -2.46245,-0.3792 -4.9249,-0.75841 -2.46245,-0.37921 -4.9249,-0.75842 -4.9249,-0.75842 0,0 0.24882,-1.48505 0.58405,-3.48585 0.17837,-1.06458 0.3812,-2.27516 0.58403,-3.48575 0.20284,-1.21058 0.40567,-2.42116 0.58404,-3.48574 0.33523,-2.0008 0.58405,-3.48585 0.58405,-3.48585"
       style="fill:none;stroke:#ff0000;stroke-width:0.85156065;stroke-miterlimit:4;stroke-dasharray:none;stroke-opacity:1" />
    <path
       sodipodi:nodetypes="cccccccccscccccccccccccccccccccccccccccccccsccccccccccccccccccccccccccccccccccccc"
       inkscape:connector-curvature="0"
       id="path3349-8"
       d="m 138.46724,641.61723 c 0,0 -1.64946,0.2903 -4.2191,0.74254 -1.22392,0.21541 -2.65661,0.46755 -4.21925,0.74257 -1.3287,0.23385 -2.75136,0.48423 -4.21953,0.74262 -1.3792,0.24274 -2.79856,0.49254 -4.21792,0.74234 -1.4195,0.24982 -2.839,0.49965 -4.21834,0.74241 -1.46833,0.25842 -2.89114,0.50883 -4.21998,0.7427 -1.5627,0.27502 -2.99544,0.52718 -4.21941,0.74259 -2.56975,0.45227 -4.21928,0.74258 -4.21928,0.74258 0,0 -1.04615,1.48507 -2.45561,3.48589 -0.74993,1.06458 -1.60273,2.27517 -2.45552,3.48577 -0.85279,1.21059 -1.70558,2.42118 -2.45552,3.48577 -1.40946,2.00082 -2.4556,3.48588 -2.4556,3.48588 0,0 0.005,1.30005 0.0112,3.05175 0.003,0.93254 0.007,1.99307 0.0112,3.05361 0.004,1.06054 0.008,2.12107 0.0112,3.05361 0.006,1.7517 0.0112,3.05175 0.0112,3.05175 0,0 1.32823,0.45377 2.65647,0.90755 1.32823,0.45377 2.65647,0.90755 2.65647,0.90755 0,0 0.0335,1.30976 0.067,2.61953 0.0335,1.30976 0.067,2.61953 0.067,2.61953 0,0 -2.41092,2.72267 -2.41092,2.72267 0,0 -1.76354,0.0103 -3.52707,0.0206 -1.763541,0.0103 -3.527081,0.0206 -3.527081,0.0206 0,0 0.0143,1.07246 0.0335,2.51725 0.0102,0.76832 0.0219,1.64193 0.0335,2.51554 0.0116,0.87361 0.0233,1.74723 0.0335,2.51555 0.0192,1.44478 0.0335,2.51725 0.0335,2.51725 0,0 -0.73165,1.37335 -1.70204,3.60513 -0.46013,1.05825 -0.97395,2.30952 -1.48888,3.69889 -0.43435,1.17194 -0.8695,2.44214 -1.27391,3.77766 -0.37473,1.23752 -0.72307,2.53112 -1.01993,3.85459 -0.28891,1.28807 -0.52906,2.60443 -0.6973,3.92492 -0.16939,1.32954 -0.2659,2.66327 -0.2659,3.97651 0,1.23037 0.0829,2.45155 0.22983,3.64947 0.15081,1.22994 0.36902,2.43536 0.63404,3.60105 0.27858,1.22533 0.60889,2.40677 0.96702,3.52665 0.39259,1.22762 0.81862,2.38126 1.2466,3.43765 0.51297,1.2662 1.02875,2.39268 1.49311,3.33935 0.98811,2.01445 1.74338,3.21476 1.74338,3.21476 0,0 0,1.88164 0,4.81302 0,1.39622 0,3.03058 0,4.81319 0,1.51575 0,3.13868 0,4.81353 0,1.57334 0,3.1925 0,4.81167 0,1.61932 0,3.23865 0,4.81216 0,1.67502 0,3.29813 0,4.81403 0,1.78268 0,3.41711 0,4.81338 0,2.9315 0,4.81324 0,4.81324 0,0 2.08361,0 4.167221,0 2.08362,0 4.16723,0 4.16723,0 0,0 0,1.53668 0,3.93063 0,1.14024 0,2.47497 0,3.93078 0,1.23785 0,2.56324 0,3.93104 0,1.2849 0,2.60721 0,3.92953 0,1.32245 0,2.6449 0,3.92993 0,1.36794 0,2.69347 0,3.93146 0,1.45586 0,2.79064 0,3.93093 0,2.39409 0,3.93079 0,3.93079 0,0 -1.53327,0 -3.59903,0 -1.09913,0 -2.349021,0 -3.598901,0 -1.24989,0 -2.49977,0 -3.59891,0 -2.06576,0 -3.59903,0 -3.59903,0 0,0 0,1.1704 0,2.7472 0,0.8385 0,1.7919 0,2.7454 0,0.95335 0,1.9067 0,2.7452 0,1.57678 0,2.74718 0,2.74718 0,0 3.30173,3.5414 3.30173,3.5414 0,0 1.61114,0.4968 4.20249,1.2959 1.20893,0.3728 2.631191,0.8114 4.202741,1.296 1.30966,0.4039 2.72299,0.8397 4.20292,1.296 1.35467,0.4178 2.76514,0.8527 4.20298,1.2961 1.38393,0.4268 2.79322,0.8613 4.2025,1.2959 1.40929,0.4346 2.81857,0.8692 4.20249,1.2959 1.43789,0.4434 2.84839,0.8784 4.20309,1.2961 1.47996,0.4564 2.8933,0.8922 4.20296,1.2961 1.57138,0.4845 2.99348,0.923 4.20226,1.2958 2.59105,0.799 4.20196,1.2957 4.20196,1.2957 0,0 0.45191,-1.0878 1.06072,-2.5533 0.32375,-0.7794 0.69187,-1.6655 1.05999,-2.5516 0.36812,-0.8862 0.73625,-1.7723 1.06,-2.5517 0.6088,-1.4655 1.06072,-2.5533 1.06072,-2.5533 0,0 1.71224,0.5128 4.37971,1.3117 1.27052,0.3805 2.75775,0.8259 4.37988,1.3117 1.37928,0.4131 2.8561,0.8554 4.38017,1.3119 1.4317,0.4288 2.9051,0.87 4.37849,1.3113 1.47354,0.4413 2.94709,0.8826 4.37894,1.3115 1.52422,0.4565 3.0012,0.8988 4.38063,1.312 1.62219,0.4858 3.10948,0.9312 4.38005,1.3118 2.66758,0.7989 4.37991,1.3117 4.37991,1.3117 0,0 -0.72611,2.2848 -1.45222,4.5696 -0.7261,2.2848 -1.45221,4.5696 -1.45221,4.5696 0,0 1.50946,0.4874 3.74607,1.2095 1.10321,0.3562 2.38334,0.7695 3.7465,1.2097 1.20547,0.3892 2.47586,0.7993 3.74626,1.2095 1.2704,0.4102 2.5408,0.8204 3.74626,1.2096 1.36317,0.4401 2.64331,0.8534 3.74653,1.2096 2.23662,0.7222 3.7461,1.2095 3.7461,1.2095 0,0 1.6207,0.01 3.80425,0.023 1.16181,0.01 2.48296,0.015 3.80412,0.023 1.32115,0.01 2.64231,0.016 3.80412,0.023 2.18355,0.013 3.80425,0.023 3.80425,0.023 0,0 0.007,-1.3767 0.0158,-3.2318 0.005,-0.9876 0.0103,-2.1107 0.0158,-3.2338 0.005,-1.1231 0.011,-2.2463 0.0158,-3.2338 0.009,-1.8551 0.0158,-3.2319 0.0158,-3.2319 0,0 3.17318,0 3.17318,0 0,0 0,-1.801 0,-4.8877 0,-1.3855 0,-3.0302 0,-4.8872 0,-1.4991 0,-3.1365 0,-4.8879 0,-1.5461 0,-3.1809 0,-4.8876 0,-1.5725 0,-3.20598 0,-4.88728 0,-1.5902 0,-3.2233 0,-4.888 0,-1.6033 0,-3.2361 0,-4.8882 0,-1.61381 0,-3.24612 0,-4.88763 0,-1.62301 0,-3.25501 0,-4.887 0,-1.632 0,-3.26399 0,-4.887 0,-1.64135 0,-3.2735 0,-4.88717 0,-1.65193 0,-3.2845 0,-4.88772 0,-1.66474 0,-3.29785 0,-4.88815 0,-1.68136 0,-3.31489 0,-4.88737 0,-1.70676 0,-3.34161 0,-4.88769 0,-1.75137 0,-3.38884 0,-4.88787 0,-1.85701 0,-3.50159 0,-4.88712 0,-3.08659 0,-4.88756 0,-4.88756 0,0 1.73772,0 4.90826,0 1.37498,0 3.01942,0 4.90847,0 1.48809,0 3.12797,0 4.90748,0 1.53511,0 3.17414,0 4.90928,0 1.56004,0 3.19777,0 4.90752,0 1.57656,0 3.21436,0 4.90894,0 1.58759,0 3.22503,0 4.90864,0 1.59556,0 3.23259,0 4.908,0 1.60188,0 3.23883,0 4.90814,0 1.60692,0 3.24382,0 4.90827,0 1.61119,0 3.2482,0 4.90882,0 1.61425,0 3.25082,0 4.90768,0 1.61692,0 3.25317,0 4.90686,0 1.62013,0 3.257,0 4.90886,0 1.62246,0 3.25937,0 4.90906,0 1.62412,0 3.26062,0 4.9079,0 1.62576,0 3.26202,0 4.90725,0 1.62765,0 3.26409,0 4.90782,0 1.62927,0 3.26572,0 4.90788,0 1.63097,0 3.26758,0 4.90842,0 1.63215,0 3.26848,0 4.90759,0 1.63351,0 3.26979,0 4.90745,0 1.63503,0 3.27143,0 4.90783,0 1.6364,0 3.2728,0 4.90782,0 1.63785,0 3.27432,0 4.90802,0 1.6393,0 3.27582,0 4.90815,0 1.64097,0 3.27772,0 4.90882,0 1.64229,0 3.27886,0 4.90827,0 1.64392,0 3.28054,0 4.90838,0 1.64542,0 3.28187,0 4.9078,0 1.64719,0 3.28358,0 4.90759,0 1.64959,0 3.28639,0 4.90875,0 1.65146,0 3.28795,0 4.90769,0 1.65412,0 3.29077,0 4.90809,0 1.65671,0 3.29314,0 4.90725,0 1.66047,0 3.29733,0 4.90838,0 1.66422,0 3.3009,0 4.9076,0 1.66908,0 3.30581,0 4.90748,0 1.67528,0 3.3122,0 4.90765,0 1.6835,0 3.32082,0 4.9083,0 1.6945,0 3.33221,0 4.9087,0 1.70966,0 3.34731,0 4.90728,0 1.73493,0 3.37378,0 4.90875,0 1.77932,0 3.41905,0 4.90703,0 1.88919,0 3.53376,0 4.90884,0 3.17078,0 4.90865,0 4.90865,0 0,0 0,1.85287 0,4.90083 0,1.40203 0,3.05692 0,4.90066 0,1.5177 0,3.16335 0,4.90126 0,1.56686 0,3.2087 0,4.89936 0,1.59728 0,3.23814 0,4.9005 0,1.61989 0,3.2602 0,4.90052 0,1.64032 0,3.28065 0,4.90056 0,1.66238 0,3.30325 0,4.90055 0,1.69087 0,3.3329 0,4.89993 0,1.7381 0,3.38392 0,4.90174 0,1.84357 0,3.49831 0,4.90017 0,3.0477 0,4.9004 0,4.9004 0,0 -0.99445,0.9188 -1.9889,1.8377 -0.99444,0.9188 -1.98889,1.83765 -1.98889,1.83765 0,0 0,1.62665 0,4.30273 0,1.2309 0,2.6839 0,4.3026 0,1.3325 0,2.7774 0,4.3032 0,1.3757 0,2.8172 0,4.3016 0,1.4023 0,2.843 0,4.3025 0,1.4222 0,2.8624 0,4.3025 0,1.4402 0,2.8803 0,4.3026 0,1.4595 0,2.9002 0,4.3026 0,1.4845 0,2.9262 0,4.302 0,1.526 0,2.971 0,4.3036 0,1.6186 0,3.0714 0,4.3022 0,2.6758 0,4.3024 0,4.3024 0,0 1.44584,0 3.39382,0 1.03646,0 2.21508,0 3.3937,0 1.17862,0 2.35724,0 3.39371,0 1.94797,0 3.39382,0 3.39382,0 0,0 1.2638,-0.4969 2.96666,-1.1664 0.90654,-0.3565 1.93751,-0.7618 2.96848,-1.1672 1.03097,-0.4053 2.06194,-0.8107 2.96847,-1.1671 1.70287,-0.6696 2.96667,-1.1665 2.96667,-1.1665 0,0 0.50512,-3.1503 0.50512,-3.1503 0,0 1.42567,-0.4722 3.34646,-1.1085 1.02201,-0.3385 2.18418,-0.7235 3.34636,-1.1084 1.16217,-0.385 2.32435,-0.7699 3.34635,-1.1085 1.9208,-0.6362 3.34647,-1.1084 3.34647,-1.1084 0,0 3.53582,1.9835 3.53582,1.9835 0,0 1.72879,-0.5055 4.57265,-1.337 1.30814,-0.3825 2.85221,-0.834 4.57249,-1.337 1.41606,-0.414 2.95152,-0.863 4.57304,-1.3371 1.46194,-0.4275 2.99383,-0.8754 4.57128,-1.3367 1.49032,-0.4357 3.0213,-0.8834 4.57241,-1.3369 1.5114,-0.442 3.0419,-0.8895 4.5723,-1.337 1.5305,-0.4475 3.061,-0.895 4.5724,-1.3369 1.5511,-0.4535 3.0821,-0.9012 4.5724,-1.337 1.5776,-0.4613 3.1097,-0.9093 4.5718,-1.3368 1.6217,-0.4742 3.1573,-0.9232 4.5735,-1.3372 1.7201,-0.503 3.2641,-0.9544 4.5721,-1.3369 2.8435,-0.8315 4.5721,-1.3369 4.5721,-1.3369 0,0 0.3789,-4.3755 0.3789,-4.3755 0,0 1.0222,-1.0812 2.3993,-2.5378 0.7328,-0.775 1.5661,-1.6564 2.3993,-2.5377 0.8333,-0.8814 1.6665,-1.7627 2.3993,-2.5378 1.3771,-1.4566 2.3993,-2.5378 2.3993,-2.5378 0,0 1.7679,0 3.5359,0 1.7679,0 3.5358,0 3.5358,0 0,0 1.176,-1.0866 2.3519,-2.1731 1.176,-1.0866 2.352,-2.1732 2.352,-2.1732 0,0 0,-1.5884 0,-4.14328 0,-1.1918 0,-2.594 0,-4.1434 0,-1.2915 0,-2.6852 0,-4.1447 0,-1.3352 0,-2.7255 0,-4.14268 0,-1.36461 0,-2.75421 0,-4.14381 0,-1.3896 0,-2.7792 0,-4.14378 0,-1.41718 0,-2.80739 0,-4.1426 0,-1.45938 0,-2.85307 0,-4.14449 0,-1.54913 0,-2.9511 0,-4.14276 0,-2.55434 0,-4.14242 0,-4.14242 0,0 -4.9186,0 -4.9186,0 0,0 0,-1.7781 0,-4.70306 0,-1.34545 0,-2.93356 0,-4.7029 0,-1.45645 0,-3.03569 0,-4.70346 0,-1.50363 0,-3.07922 0,-4.70165 0,-1.53283 0,-3.10747 0,-4.70274 0,-1.55452 0,-3.12864 0,-4.70276 0,-1.57413 0,-3.14826 0,-4.7028 0,-1.59529 0,-3.16995 0,-4.70279 0,-1.62263 0,-3.1984 0,-4.70219 0,-1.66796 0,-3.24736 0,-4.70393 0,-1.76917 0,-3.35713 0,-4.70245 0,-2.92467 0,-4.70257 0,-4.70257 0,0 0.8132,-1.19738 1.7093,-3.23834 0.4256,-0.96941 0.8699,-2.12912 1.2546,-3.44125 0.3206,-1.09332 0.5998,-2.29247 0.7924,-3.5755 0.1733,-1.15448 0.2764,-2.37689 0.2764,-3.65123 0,-1.18778 -0.082,-2.30332 -0.2208,-3.34177 -0.1606,-1.19905 -0.3977,-2.29531 -0.6738,-3.28132 -0.343,-1.22481 -0.7461,-2.27949 -1.1374,-3.14972 -0.8512,-1.8929 -1.6468,-2.91307 -1.6468,-2.91307 0,0 0,-2.03274 0,-4.77142 0,-1.45718 0,-3.11421 0,-4.77125 0,-1.65704 0,-3.31408 0,-4.77126 0,-2.73868 0,-4.77141 0,-4.77141 0,0 -4.4327,0 -4.4327,0 0,0 0,-1.55341 0,-3.64629 0,-1.11357 0,-2.37987 0,-3.64617 0,-1.2663 0,-2.5326 0,-3.64618 0,-2.09288 0,-3.64629 0,-3.64629 0,0 -1.1029,-1.46641 -2.5888,-3.4421 -0.7906,-1.05121 -1.6896,-2.2466 -2.5887,-3.44198 -0.899,-1.19539 -1.7981,-2.39078 -2.5887,-3.44199 -1.4859,-1.97569 -2.5887,-3.4421 -2.5887,-3.4421 0,0 -1.6631,-0.27084 -4.2541,-0.69278 -1.234,-0.20098 -2.6786,-0.43622 -4.2542,-0.69281 -1.3397,-0.21818 -2.7741,-0.45178 -4.2544,-0.69286 -1.3907,-0.22646 -2.8218,-0.45953 -4.2529,-0.69259 -1.4312,-0.23308 -2.8625,-0.46617 -4.2533,-0.69266 -1.4805,-0.2411 -2.915,-0.47473 -4.2549,-0.69293 -1.5756,-0.25659 -3.0202,-0.49185 -4.2544,-0.69283 -2.591,-0.42196 -4.2542,-0.69281 -4.2542,-0.69281 0,0 0,-1.77937 0,-3.55873 0,-1.77936 0,-3.55872 0,-3.55872 0,0 -1.92332,0.0249 -4.51458,0.0583 -1.37875,0.0178 -2.94659,0.0381 -4.51443,0.0583 -1.56784,0.0203 -3.13568,0.0405 -4.51442,0.0583 -2.59126,0.0335 -4.51457,0.0583 -4.51457,0.0583 0,0 -1.37172,1.26743 -2.74343,2.53486 -1.37172,1.26744 -2.74343,2.53487 -2.74343,2.53487 0,0 -1.44126,0 -3.38305,0 -1.03318,0 -2.20806,0 -3.38294,0 -1.17488,0 -2.34976,0 -3.38294,0 -1.94179,0 -3.38305,0 -3.38305,0 0,0 -0.50618,-1.494 -1.29475,-3.82147 -0.37559,-1.10857 -0.81525,-2.40623 -1.29479,-3.8216 -0.40775,-1.20348 -0.84433,-2.49206 -1.29488,-3.82187 -0.42325,-1.24921 -0.85882,-2.5348 -1.29439,-3.8204 -0.43561,-1.28571 -0.87123,-2.57143 -1.29451,-3.82078 -0.4506,-1.32994 -0.88723,-2.61866 -1.29502,-3.82227 -0.47956,-1.41542 -0.91924,-2.71313 -1.29485,-3.82175 -0.7886,-2.32756 -1.2948,-3.82164 -1.2948,-3.82164 0,0 -0.98223,-0.80442 -1.96445,-1.60884 -0.98223,-0.80442 -1.96445,-1.60885 -1.96445,-1.60885 0,0 -1.59775,-0.009 -3.75038,-0.0206 -1.14535,-0.006 -2.4478,-0.0135 -3.75025,-0.0206 -1.30244,-0.007 -2.60489,-0.0143 -3.75025,-0.0206 -2.15262,-0.0118 -3.75037,-0.0206 -3.75037,-0.0206 0,0 0,1.33519 0,3.13423 0,0.95774 0,2.04694 0,3.13614 0,1.0892 0,2.1784 0,3.13614 0,1.79904 0,3.13423 0,3.13423 0,0 -1.776,0 -4.54278,0 -1.31783,0 -2.86043,0 -4.54295,0 -1.43064,0 -2.96245,0 -4.54326,0 -1.48501,0 -3.01326,0 -4.54152,0 -1.5284,0 -3.0568,0 -4.54196,0 -1.58098,0 -3.11295,0 -4.54374,0 -1.68259,0 -3.22525,0 -4.54313,0 -2.7669,0 -4.54298,0 -4.54298,0 0,0 0,-2.4339 0,-4.86779 0,-2.43389 0,-4.86778 0,-4.86778 0,0 -2.45556,0 -4.91113,0 -2.45556,0 -4.91112,0 -4.91112,0 0,0 0,1.6821 0,3.94837 0,1.20583 0,2.57703 0,3.94824 0,1.37121 0,2.74242 0,3.94824 0,2.26627 0,3.94837 0,3.94837 0,0 -1.17973,-0.0199 -2.76903,-0.0467 -0.84516,-0.0143 -1.80616,-0.0305 -2.76715,-0.0467 -0.96099,-0.0162 -1.92198,-0.0324 -2.76715,-0.0467 -1.58929,-0.0268 -2.76902,-0.0467 -2.76902,-0.0467 0,0 0,-1.67098 0,-3.92228 0,-1.19786 0,-2.56001 0,-3.92216 0,-1.36215 0,-2.72429 0,-3.92215 0,-2.2513 0,-3.92229 0,-3.92229 0,0 -1.79244,0 -4.95446,0 -1.39681,0 -3.06088,0 -4.95576,0 -1.51123,0 -3.16928,0 -4.95565,0 -1.55776,0 -3.21311,0 -4.95377,0 -1.58397,0 -3.23859,0 -4.95462,0 -1.60103,0 -3.25552,0 -4.95596,0 -1.6127,0 -3.26673,0 -4.95569,0 -1.62108,0 -3.27434,0 -4.95411,0 -1.62862,0 -3.28216,0 -4.95547,0 -1.63455,0 -3.28796,0 -4.95543,0 -1.6395,0 -3.29259,0 -4.9547,0 -1.64434,0 -3.29752,0 -4.9551,0 -1.64874,0 -3.30185,0 -4.95495,0 -1.6531,0 -3.3062,0 -4.95495,0 -1.6576,0 -3.3108,0 -4.95517,0 -1.66213,0 -3.31524,0 -4.95477,0 -1.66726,0 -3.32048,0 -4.95483,0 -1.67311,0 -3.32646,0 -4.95489,0 -1.67975,0 -3.33298,0 -4.95404,0 -1.68893,0 -3.34294,0 -4.95562,0 -1.70042,0 -3.35488,0 -4.9559,0 -1.71601,0 -3.37062,0 -4.95458,0 -1.74092,0 -3.3965,0 -4.95447,0 -1.78661,0 -3.44487,0 -4.95628,0 -1.89481,0 -3.55883,0 -4.95559,0 -3.16191,0 -4.95427,0 -4.95427,0 0,0 0,1.83814 0,3.67627 0,1.83813 0,3.67626 0,3.67626 0,0 -1.41222,0 -3.3149,0 -1.01236,0 -2.16357,0 -3.31478,0 -1.15121,0 -2.30242,0 -3.31479,0 -1.90267,0 -3.31489,0 -3.31489,0 0,0 0,2.0153 0,4.0306 0,2.0153 0,4.0306 0,4.0306 0,0 -1.15038,-0.0141 -2.70014,-0.0331 -0.82414,-0.0101 -1.76123,-0.0216 -2.69831,-0.033 -0.93709,-0.0115 -1.87417,-0.0229 -2.69831,-0.033 -1.54976,-0.019 -2.70014,-0.033 -2.70014,-0.033 0,0 0,-1.88017 0,-3.76034 0,-1.88018 0,-3.76035 0,-3.76035 0,0 -1.37136,0 -3.21915,0 -0.98369,0 -2.1024,0 -3.22111,0 -1.11871,0 -2.23743,0 -3.22111,0 -1.84779,0 -3.21915,0 -3.21915,0 0,0 0,-1.11887 0,-2.62618 0,-0.80156 0,-1.71298 0,-2.62439 0,-0.91142 0,-1.82284 0,-2.6244 0,-1.50731 0,-2.62618 0,-2.62618 0,0 -1.58707,0 -3.72531,0 -1.1377,0 -2.43145,0 -3.72519,0 -1.29374,0 -2.58748,0 -3.72518,0 -2.13824,0 -3.72531,0 -3.72531,0 0,0 -1.05759,0.97719 -2.11519,1.95438 -1.05759,0.97719 -2.11518,1.95438 -2.11518,1.95438 0,0 -0.61905,1.80608 -1.53631,4.48217 -0.45244,1.32 -0.97744,2.85168 -1.53649,4.48269 -0.49438,1.44235 -1.01538,2.96238 -1.53639,4.48241 -0.52101,1.52003 -1.04201,3.04007 -1.53638,4.48241 -0.55905,1.63103 -1.08405,3.16272 -1.5365,4.48273 -0.91727,2.67611 -1.53632,4.4822 -1.53632,4.4822 0,0 -1.19966,2.94616 -1.19966,2.94616 0,0 -1.4324,0 -3.36225,0 -1.02683,0 -2.19449,0 -3.36214,0 -1.16766,0 -2.33532,0 -3.36214,0 -1.92986,0 -3.36226,0 -3.36226,0 0,0 -1.41042,-1.3032 -2.82085,-2.6064 -1.41043,-1.30321 -2.82085,-2.60641 -2.82085,-2.60641 0,0 -1.87672,0 -4.40521,0 -1.34535,0 -2.87521,0 -4.40507,0 -1.52986,0 -3.05972,0 -4.40506,0 -2.52849,0 -4.40521,0 -4.40521,0 0,0 0,1.61573 0,3.23146 0,1.61572 0,3.23145 0,3.23145 0,0 -1.29471,0.3301 -1.29471,0.3301"
       style="fill:none;fill-rule:evenodd;stroke:#ff0000;stroke-width:0.9613173px;stroke-linecap:butt;stroke-linejoin:miter;stroke-opacity:1" />
    <path
       id="path3640"
       d="m 113.7725,715.24592 c 0,1.45506 -0.28956,2.84248 -0.8142,4.10779 -0.54388,1.3117 -1.34039,2.49217 -2.32884,3.48072 -0.98864,0.98875 -2.1693,1.78549 -3.48124,2.32951 -1.26538,0.5247 -2.65289,0.8143 -4.10804,0.8143 -1.45505,0 -2.84248,-0.28956 -4.10779,-0.8142 -1.311702,-0.54388 -2.492175,-1.34039 -3.480725,-2.32884 -0.988743,-0.98864 -1.785488,-2.1693 -2.329503,-3.48124 -0.524708,-1.26538 -0.814307,-2.65289 -0.814308,-4.10804 -1e-6,-1.42319 0.28268,-2.81724 0.816948,-4.10708 0.534268,-1.28984 1.320124,-2.47547 2.326475,-3.48182 1.00635,-1.00635 2.191978,-1.79221 3.481817,-2.32648 1.289836,-0.53427 2.683886,-0.81695 4.107086,-0.81695 1.42319,0 2.81724,0.28268 4.10708,0.81695 1.28984,0.53427 2.47547,1.32013 3.48182,2.32648 1.00635,1.00635 1.79221,2.19198 2.32647,3.48182 0.53427,1.28984 0.81695,2.68389 0.81695,4.10708 0,0 0,0 0,0"
       style="fill:none;stroke:#ff00ff;stroke-width:1;stroke-miterlimit:4;stroke-dasharray:none;stroke-opacity:1"
       inkscape:connector-curvature="0" />
    <path
       id="path3640-3"
       d="m 169.97882,715.02149 c 0,1.4232 -0.28269,2.81725 -0.81695,4.10708 -0.53427,1.28984 -1.32013,2.47547 -2.32648,3.48182 -1.00635,1.00635 -2.19198,1.79221 -3.48182,2.32647 -1.28984,0.53427 -2.68389,0.81695 -4.10708,0.81695 -1.45506,0 -2.84248,-0.28956 -4.10779,-0.8142 -1.3117,-0.54388 -2.49217,-1.34039 -3.48072,-2.32884 -0.98875,-0.98864 -1.78549,-2.1693 -2.32951,-3.48124 -0.5247,-1.26538 -0.8143,-2.65289 -0.8143,-4.10804 0,-1.45505 0.28956,-2.84247 0.8142,-4.10778 0.54388,-1.31171 1.34039,-2.49218 2.32884,-3.48073 0.98864,-0.98874 2.1693,-1.78549 3.48124,-2.3295 1.26538,-0.52471 2.65289,-0.81431 4.10804,-0.81431 1.42319,0 2.81724,0.28268 4.10708,0.81695 1.28984,0.53427 2.47547,1.32012 3.48182,2.32647 1.00635,1.00635 1.79221,2.19198 2.32648,3.48182 0.53426,1.28984 0.81695,2.68389 0.81695,4.10708 0,0 0,0 0,0"
       style="fill:none;stroke:#ff00ff;stroke-width:1;stroke-miterlimit:4;stroke-dasharray:none;stroke-opacity:1"
       inkscape:connector-curvature="0" />
    <path
       id="path3640-3-1"
       d="m 141.8028,686.96308 c 0,1.45505 -0.28956,2.84248 -0.81421,4.10779 -0.54387,1.3117 -1.34038,2.49217 -2.32883,3.48072 -0.98865,0.98875 -2.1693,1.78549 -3.48125,2.3295 -1.26537,0.52471 -2.65288,0.81431 -4.10803,0.81431 -1.4232,0 -2.81725,-0.28268 -4.10709,-0.81695 -1.28984,-0.53426 -2.47546,-1.32012 -3.48181,-2.32647 -1.00636,-1.00635 -1.79221,-2.19198 -2.32648,-3.48182 -0.53427,-1.28983 -0.81695,-2.68388 -0.81695,-4.10708 0,-1.42319 0.28268,-2.81724 0.81695,-4.10708 0.53427,-1.28984 1.32012,-2.47547 2.32648,-3.48182 1.00635,-1.00635 2.19197,-1.7922 3.48181,-2.32647 1.28984,-0.53427 2.68389,-0.81695 4.10709,-0.81695 1.45505,0 2.84247,0.28956 4.10778,0.81421 1.3117,0.54387 2.49218,1.34038 3.48073,2.32883 0.98874,0.98865 1.78548,2.1693 2.3295,3.48124 0.52471,1.26538 0.81431,2.65289 0.81431,4.10804 0,0 0,0 0,0"
       style="fill:none;stroke:#ff00ff;stroke-width:1;stroke-miterlimit:4;stroke-dasharray:none;stroke-opacity:1"
       inkscape:connector-curvature="0" />
    <path
       id="path3640-3-1-1"
       d="m 142.05533,742.51868 c 0,1.4232 -0.28268,2.81725 -0.81695,4.10709 -0.53427,1.28984 -1.32013,2.47547 -2.32648,3.48182 -1.00635,1.00635 -2.19198,1.79221 -3.48182,2.32647 -1.28984,0.53427 -2.68389,0.81695 -4.10708,0.81695 -1.4232,0 -2.81725,-0.28268 -4.10709,-0.81695 -1.28983,-0.53427 -2.47546,-1.32013 -3.48181,-2.32648 -1.00635,-1.00635 -1.79221,-2.19198 -2.32648,-3.48181 -0.53426,-1.28984 -0.81694,-2.68389 -0.81694,-4.10709 0,-1.45505 0.28956,-2.84247 0.8142,-4.10778 0.54388,-1.31171 1.34039,-2.49218 2.32884,-3.48073 0.98864,-0.98874 2.1693,-1.78549 3.48124,-2.3295 1.26538,-0.52471 2.65289,-0.81431 4.10804,-0.81431 1.42319,0 2.81724,0.28268 4.10708,0.81695 1.28984,0.53427 2.47547,1.32012 3.48182,2.32647 1.00635,1.00635 1.79221,2.19198 2.32648,3.48182 0.53426,1.28984 0.81695,2.68389 0.81695,4.10708 0,0 0,0 0,0"
       style="fill:none;stroke:#ff00ff;stroke-width:1;stroke-miterlimit:4;stroke-dasharray:none;stroke-opacity:1"
       inkscape:connector-curvature="0" />
    <path
       id="path3640-3-1-1-2"
       d="m 494.79861,723.21906 c 0,1.44397 -0.22863,2.83455 -0.65166,4.13749 -0.43849,1.35056 -1.08584,2.60698 -1.90395,3.73113 -0.82618,1.13525 -1.8265,2.13562 -2.96171,2.96185 -1.12434,0.81833 -2.381,1.46583 -3.73184,1.90439 -1.30289,0.42299 -2.69339,0.65159 -4.13729,0.65159 -1.44397,0 -2.83455,-0.22863 -4.1375,-0.65165 -1.35055,-0.43849 -2.60697,-1.08585 -3.73112,-1.90395 -1.13525,-0.82619 -2.13562,-1.82651 -2.96185,-2.96172 -0.81833,-1.12434 -1.46584,-2.38099 -1.90439,-3.73183 -0.42299,-1.30289 -0.65159,-2.6934 -0.65159,-4.1373 0,-1.44397 0.22862,-2.83454 0.65165,-4.13749 0.43849,-1.35056 1.08584,-2.60697 1.90395,-3.73113 0.82618,-1.13525 1.82651,-2.13561 2.96171,-2.96185 1.12435,-0.81832 2.381,-1.46583 3.73184,-1.90438 1.30289,-0.42299 2.6934,-0.6516 4.1373,-0.6516 1.44397,0 2.83454,0.22863 4.13749,0.65166 1.35056,0.43849 2.60697,1.08584 3.73113,1.90395 1.13525,0.82618 2.13561,1.8265 2.96185,2.96171 0.81832,1.12434 1.46583,2.381 1.90438,3.73183 0.42299,1.3029 0.6516,2.6934 0.6516,4.1373 0,0 0,0 0,0"
       style="fill:none;stroke:#ff00ff;stroke-width:1.24730217;stroke-miterlimit:4;stroke-dasharray:none;stroke-opacity:1"
       inkscape:connector-curvature="0" />
    <path
       id="path3640-3-1-1-2-9"
       d="m 540.03775,707.54389 c 0,1.18012 -0.15583,2.34416 -0.45609,3.46464 -0.30271,1.12959 -0.75221,2.21491 -1.33683,3.22774 -0.58007,1.00496 -1.29317,1.93856 -2.12789,2.77327 -0.83446,0.83447 -1.76776,1.54739 -2.77237,2.12737 -1.01279,0.5847 -2.09807,1.03428 -3.22764,1.33708 -1.12078,0.30043 -2.28517,0.45635 -3.46564,0.45635 -1.44397,0 -2.83455,-0.22863 -4.1375,-0.65165 -1.35055,-0.43849 -2.60697,-1.08585 -3.73112,-1.90395 -1.13525,-0.82619 -2.13562,-1.82651 -2.96185,-2.96172 -0.81833,-1.12434 -1.46584,-2.38099 -1.90439,-3.73183 -0.42299,-1.30289 -0.65159,-2.6934 -0.65159,-4.1373 0,-1.44397 0.22862,-2.83454 0.65165,-4.13749 0.43849,-1.35056 1.08584,-2.60697 1.90395,-3.73113 0.82618,-1.13525 1.82651,-2.13561 2.96171,-2.96185 1.12435,-0.81832 2.381,-1.46583 3.73184,-1.90438 1.30289,-0.42299 2.6934,-0.6516 4.1373,-0.6516 1.18011,0 2.34416,0.15583 3.46463,0.45609 1.1296,0.3027 2.21491,0.7522 3.22775,1.33682 1.00495,0.58008 1.93856,1.29317 2.77327,2.12789 0.83447,0.83447 1.54739,1.76776 2.12737,2.77237 0.5847,1.01279 1.03428,2.09807 1.33708,3.22764 0.30044,1.12078 0.45636,2.28517 0.45636,3.46564 0,0 0,0 0,0"
       style="fill:none;stroke:#ff00ff;stroke-width:1.24730217;stroke-miterlimit:4;stroke-dasharray:none;stroke-opacity:1"
       inkscape:connector-curvature="0" />
    <path
       id="path3732"
       d="m 171.47452,813.98328 c 0,0.87066 -0.17294,1.72349 -0.49978,2.51257 -0.32685,0.78908 -0.80761,1.51441 -1.42326,2.13006 -0.61565,0.61565 -1.34098,1.09641 -2.13005,1.42325 -0.78908,0.32685 -1.64191,0.49978 -2.51257,0.49978 -1.19602,0 -2.31734,-0.31979 -3.28313,-0.87854 -0.99648,-0.57651 -1.82739,-1.4074 -2.40392,-2.40388 -0.55878,-0.96581 -0.8786,-2.08718 -0.8786,-3.28324 0,-1.19601 0.31979,-2.31733 0.87854,-3.28312 0.5765,-0.99649 1.40739,-1.82739 2.40387,-2.40392 0.96581,-0.55879 2.08718,-0.87861 3.28324,-0.87861 1.19601,0 2.31733,0.3198 3.28312,0.87854 0.99649,0.57651 1.8274,1.4074 2.40393,2.40387 0.55878,0.96581 0.87861,2.08718 0.87861,3.28324 0,0 0,0 0,0"
       style="fill:none;stroke:#ff00ff;stroke-width:1;stroke-miterlimit:4;stroke-dasharray:none;stroke-opacity:1"
       inkscape:connector-curvature="0" />
    <path
       id="path3732-3"
       d="m 171.60079,785.44794 c 0,0.87066 -0.17294,1.72349 -0.49978,2.51257 -0.32685,0.78908 -0.80761,1.51441 -1.42326,2.13006 -0.61565,0.61565 -1.34098,1.09641 -2.13005,1.42325 -0.78908,0.32685 -1.64191,0.49978 -2.51257,0.49978 -0.87066,0 -1.72349,-0.17293 -2.51257,-0.49978 -0.78908,-0.32684 -1.51441,-0.8076 -2.13006,-1.42325 -0.61565,-0.61565 -1.09641,-1.34098 -1.42325,-2.13006 -0.32685,-0.78908 -0.49978,-1.64191 -0.49978,-2.51257 0,-1.19601 0.31979,-2.31733 0.87854,-3.28312 0.57651,-0.99649 1.4074,-1.8274 2.40387,-2.40392 0.96582,-0.55879 2.08718,-0.87861 3.28325,-0.87861 1.19601,0 2.31733,0.3198 3.28312,0.87854 0.99649,0.57651 1.8274,1.4074 2.40393,2.40387 0.55878,0.96581 0.87861,2.08718 0.87861,3.28324 0,0 0,0 0,0"
       style="fill:none;stroke:#ff00ff;stroke-width:1;stroke-miterlimit:4;stroke-dasharray:none;stroke-opacity:1"
       inkscape:connector-curvature="0" />
  </g>
</svg>
